<?xml version="1.0" encoding="utf-8"?>
<!-- Generated by Mocodo 4.2.4 -->
<svg width="1337" height="1004" viewBox="0 0 1337 1004" xmlns="http://www.w3.org/2000/svg">
<rect x="0" y="0" width="1337" height="1004" fill="#f7f7f7" stroke="none" stroke-width="0"/>

<!-- Association DETIENT -->
<g>
	<line x1="316" y1="51" x2="316" y2="177" stroke="#7fbc41" stroke-width="2"/>
	<line x1="316" y1="388" x2="316" y2="177" stroke="#7fbc41" stroke-width="2"/>
	<g>
		<path d="M339 152 a14 14 90 0 1 14 14 V177 h-74 V166 a14 14 90 0 1 14 -14" fill="#b8e186" stroke="#b8e186" stroke-width="0"/>
		<path d="M353 177 v11 a14 14 90 0 1 -14 14 H293 a14 14 90 0 1 -14 -14 V177 H74" fill="#e6f5d0" stroke="#e6f5d0" stroke-width="0"/>
		<rect x="279" y="152" width="74" height="50" fill="none" rx="14" stroke="#7fbc41" stroke-width="2"/>
		<line x1="279" y1="177" x2="353" y2="177" stroke="#7fbc41" stroke-width="1"/>
		<text x="289" y="169.75" fill="#000000" font-family="Verdana" font-size="12">DETIENT</text>
		<text x="286" y="194.8" fill="#000000" font-family="Verdana" font-size="12">DETENUS</text>
	</g>
	<text x="321" y="110" fill="#c51b7d" font-family="Verdana" font-size="12">0,N</text>
	<text x="321" y="287" fill="#c51b7d" font-family="Verdana" font-size="12">1,1</text>
</g>

<!-- Association ENVOYER -->
<g>
	<line x1="563" y1="388" x2="563" y2="177" stroke="#7fbc41" stroke-width="2"/>
	<line x1="443" y1="177" x2="563" y2="177" stroke="#7fbc41" stroke-width="2"/>
	<g>
		<path d="M586 152 a14 14 90 0 1 14 14 V177 h-74 V166 a14 14 90 0 1 14 -14" fill="#b8e186" stroke="#b8e186" stroke-width="0"/>
		<path d="M600 177 v11 a14 14 90 0 1 -14 14 H540 a14 14 90 0 1 -14 -14 V177 H74" fill="#e6f5d0" stroke="#e6f5d0" stroke-width="0"/>
		<rect x="526" y="152" width="74" height="50" fill="none" rx="14" stroke="#7fbc41" stroke-width="2"/>
		<line x1="526" y1="177" x2="600" y2="177" stroke="#7fbc41" stroke-width="1"/>
		<text x="534" y="169.75" fill="#000000" font-family="Verdana" font-size="12">ENVOYER</text>
		<text x="533" y="194.8" fill="#000000" font-family="Verdana" font-size="12">ENVOYE</text>
	</g>
	<text x="536" y="253" fill="#c51b7d" font-family="Verdana" font-size="12">0,N</text>
	<text x="497" y="194" fill="#c51b7d" font-family="Verdana" font-size="12">1,1</text>
</g>

<!-- Association U_DETENIR_D -->
<g>
	<line x1="563" y1="388" x2="724" y2="177" stroke="#7fbc41" stroke-width="2"/>
	<line x1="901" y1="177" x2="724" y2="177" stroke="#7fbc41" stroke-width="2"/>
	<g>
		<path d="M762 152 a14 14 90 0 1 14 14 V177 h-104 V166 a14 14 90 0 1 14 -14" fill="#b8e186" stroke="#b8e186" stroke-width="0"/>
		<path d="M776 177 v11 a14 14 90 0 1 -14 14 H686 a14 14 90 0 1 -14 -14 V177 H104" fill="#e6f5d0" stroke="#e6f5d0" stroke-width="0"/>
		<rect x="672" y="152" width="104" height="50" fill="none" rx="14" stroke="#7fbc41" stroke-width="2"/>
		<line x1="672" y1="177" x2="776" y2="177" stroke="#7fbc41" stroke-width="1"/>
		<text x="680" y="169.75" fill="#000000" font-family="Verdana" font-size="12">U_DETENIR_D</text>
		<text x="679" y="194.8" fill="#000000" font-family="Verdana" font-size="12">D_DETENU_U</text>
	</g>
	<text x="622" y="328.49" fill="#c51b7d" font-family="Verdana" font-size="12">0,N</text>
	<text x="827" y="194" fill="#c51b7d" font-family="Verdana" font-size="12">1,1</text>
</g>

<!-- Association ARTICLES_TAGS -->
<g>
	<line x1="316" y1="388" x2="165" y2="388" stroke="#7fbc41" stroke-width="2"/>
	<line x1="42" y1="388" x2="165" y2="388" stroke="#7fbc41" stroke-width="2"/>
	<g>
		<path d="M209 363 a14 14 90 0 1 14 14 V388 h-116 V377 a14 14 90 0 1 14 -14" fill="#b8e186" stroke="#b8e186" stroke-width="0"/>
		<path d="M223 388 v11 a14 14 90 0 1 -14 14 H121 a14 14 90 0 1 -14 -14 V388 H116" fill="#e6f5d0" stroke="#e6f5d0" stroke-width="0"/>
		<rect x="107" y="363" width="116" height="50" fill="none" rx="14" stroke="#7fbc41" stroke-width="2"/>
		<line x1="107" y1="388" x2="223" y2="388" stroke="#7fbc41" stroke-width="1"/>
		<text x="114" y="380.75" fill="#000000" font-family="Verdana" font-size="12">ARTICLES_TAGS</text>
	</g>
	<text x="228" y="405" fill="#c51b7d" font-family="Verdana" font-size="12">0,N</text>
	<text x="80" y="405" fill="#c51b7d" font-family="Verdana" font-size="12">0,N</text>
</g>

<!-- Association PUBLIER -->
<g>
	<line x1="563" y1="388" x2="443" y2="388" stroke="#7fbc41" stroke-width="2"/>
	<line x1="316" y1="388" x2="443" y2="388" stroke="#7fbc41" stroke-width="2"/>
	<g>
		<path d="M463 363 a14 14 90 0 1 14 14 V388 h-68 V377 a14 14 90 0 1 14 -14" fill="#b8e186" stroke="#b8e186" stroke-width="0"/>
		<path d="M477 388 v11 a14 14 90 0 1 -14 14 H423 a14 14 90 0 1 -14 -14 V388 H68" fill="#e6f5d0" stroke="#e6f5d0" stroke-width="0"/>
		<rect x="409" y="363" width="68" height="50" fill="none" rx="14" stroke="#7fbc41" stroke-width="2"/>
		<line x1="409" y1="388" x2="477" y2="388" stroke="#7fbc41" stroke-width="1"/>
		<text x="417" y="380.75" fill="#000000" font-family="Verdana" font-size="12">PUBLIER</text>
	</g>
	<text x="482" y="405" fill="#c51b7d" font-family="Verdana" font-size="12">0,N</text>
	<text x="382" y="405" fill="#c51b7d" font-family="Verdana" font-size="12">1,1</text>
</g>

<!-- Association POSSEDER -->
<g>
	<line x1="563" y1="388" x2="724" y2="388" stroke="#7fbc41" stroke-width="2"/>
	<line x1="901" y1="388" x2="724" y2="388" stroke="#7fbc41" stroke-width="2"/>
	<g>
		<path d="M751 363 a14 14 90 0 1 14 14 V388 h-82 V377 a14 14 90 0 1 14 -14" fill="#b8e186" stroke="#b8e186" stroke-width="0"/>
		<path d="M765 388 v11 a14 14 90 0 1 -14 14 H697 a14 14 90 0 1 -14 -14 V388 H82" fill="#e6f5d0" stroke="#e6f5d0" stroke-width="0"/>
		<rect x="683" y="363" width="82" height="50" fill="none" rx="14" stroke="#7fbc41" stroke-width="2"/>
		<line x1="683" y1="388" x2="765" y2="388" stroke="#7fbc41" stroke-width="1"/>
		<text x="691" y="380.75" fill="#000000" font-family="Verdana" font-size="12">POSSEDER</text>
		<text x="690" y="405.8" fill="#000000" font-family="Verdana" font-size="12">POSSEDE</text>
	</g>
	<text x="622" y="405" fill="#c51b7d" font-family="Verdana" font-size="12">1,1</text>
	<text x="839" y="405" fill="#c51b7d" font-family="Verdana" font-size="12">0,N</text>
</g>

<!-- Association F_REFERENCE_D -->
<g>
	<line x1="901" y1="565" x2="1079" y2="388" stroke="#7fbc41" stroke-width="2"/>
	<line x1="901" y1="177" x2="1079" y2="388" stroke="#7fbc41" stroke-width="2"/>
	<g>
		<path d="M1128 363 a14 14 90 0 1 14 14 V388 h-126 V377 a14 14 90 0 1 14 -14" fill="#b8e186" stroke="#b8e186" stroke-width="0"/>
		<path d="M1142 388 v11 a14 14 90 0 1 -14 14 H1030 a14 14 90 0 1 -14 -14 V388 H126" fill="#e6f5d0" stroke="#e6f5d0" stroke-width="0"/>
		<rect x="1016" y="363" width="126" height="50" fill="none" rx="14" stroke="#7fbc41" stroke-width="2"/>
		<line x1="1016" y1="388" x2="1142" y2="388" stroke="#7fbc41" stroke-width="1"/>
		<text x="1027" y="380.75" fill="#000000" font-family="Verdana" font-size="12">F_REFERENCE_D</text>
		<text x="1023" y="405.8" fill="#000000" font-family="Verdana" font-size="12">D_REFERENCER_F</text>
	</g>
	<text x="978" y="503.36" fill="#c51b7d" font-family="Verdana" font-size="12">1,N</text>
	<text x="954" y="232.12" fill="#c51b7d" font-family="Verdana" font-size="12">1,1</text>
</g>

<!-- Association PRODUIT_DEVIS -->
<g>
	<line x1="1079" y1="751" x2="1249" y2="388" stroke="#7fbc41" stroke-width="2"/>
	<line x1="901" y1="177" x2="1249" y2="388" stroke="#7fbc41" stroke-width="2"/>
	<g>
		<path d="M1293 363 a14 14 90 0 1 14 14 V388 h-116 V377 a14 14 90 0 1 14 -14" fill="#b8e186" stroke="#b8e186" stroke-width="0"/>
		<path d="M1307 388 v11 a14 14 90 0 1 -14 14 H1205 a14 14 90 0 1 -14 -14 V388 H116" fill="#e6f5d0" stroke="#e6f5d0" stroke-width="0"/>
		<rect x="1191" y="363" width="116" height="50" fill="none" rx="14" stroke="#7fbc41" stroke-width="2"/>
		<line x1="1191" y1="388" x2="1307" y2="388" stroke="#7fbc41" stroke-width="1"/>
		<text x="1198" y="380.75" fill="#000000" font-family="Verdana" font-size="12">PRODUIT_DEVIS</text>
	</g>
	<text x="1083.3" y="684" fill="#c51b7d" font-family="Verdana" font-size="12">1,N</text>
	<text x="954" y="202.79" fill="#c51b7d" font-family="Verdana" font-size="12">1,N</text>
</g>

<!-- Association COMMENTE -->
<g>
	<line x1="316" y1="388" x2="316" y2="565" stroke="#7fbc41" stroke-width="2"/>
	<line x1="316" y1="751" x2="316" y2="565" stroke="#7fbc41" stroke-width="2"/>
	<g>
		<path d="M349 540 a14 14 90 0 1 14 14 V565 h-94 V554 a14 14 90 0 1 14 -14" fill="#b8e186" stroke="#b8e186" stroke-width="0"/>
		<path d="M363 565 v11 a14 14 90 0 1 -14 14 H283 a14 14 90 0 1 -14 -14 V565 H94" fill="#e6f5d0" stroke="#e6f5d0" stroke-width="0"/>
		<rect x="269" y="540" width="94" height="50" fill="none" rx="14" stroke="#7fbc41" stroke-width="2"/>
		<line x1="269" y1="565" x2="363" y2="565" stroke="#7fbc41" stroke-width="1"/>
		<text x="281" y="557.75" fill="#000000" font-family="Verdana" font-size="12">COMMENTE</text>
		<text x="276" y="582.8" fill="#000000" font-family="Verdana" font-size="12">COMMENTER</text>
	</g>
	<text x="321" y="498" fill="#c51b7d" font-family="Verdana" font-size="12">0,N</text>
	<text x="321" y="675" fill="#c51b7d" font-family="Verdana" font-size="12">1,1</text>
</g>

<!-- Association COMMANDER -->
<g>
	<line x1="563" y1="388" x2="563" y2="565" stroke="#7fbc41" stroke-width="2"/>
	<line x1="563" y1="751" x2="563" y2="565" stroke="#7fbc41" stroke-width="2"/>
	<g>
		<path d="M597 540 a14 14 90 0 1 14 14 V565 h-96 V554 a14 14 90 0 1 14 -14" fill="#b8e186" stroke="#b8e186" stroke-width="0"/>
		<path d="M611 565 v11 a14 14 90 0 1 -14 14 H529 a14 14 90 0 1 -14 -14 V565 H96" fill="#e6f5d0" stroke="#e6f5d0" stroke-width="0"/>
		<rect x="515" y="540" width="96" height="50" fill="none" rx="14" stroke="#7fbc41" stroke-width="2"/>
		<line x1="515" y1="565" x2="611" y2="565" stroke="#7fbc41" stroke-width="1"/>
		<text x="523" y="557.75" fill="#000000" font-family="Verdana" font-size="12">COMMANDER</text>
		<text x="522" y="582.8" fill="#000000" font-family="Verdana" font-size="12">COMMANDE</text>
	</g>
	<text x="536" y="532" fill="#c51b7d" font-family="Verdana" font-size="12">0,N</text>
	<text x="568" y="692" fill="#c51b7d" font-family="Verdana" font-size="12">1,1</text>
</g>

<!-- Association U_COMPTABILISE_F -->
<g>
	<line x1="563" y1="388" x2="724" y2="565" stroke="#7fbc41" stroke-width="2"/>
	<line x1="901" y1="565" x2="724" y2="565" stroke="#7fbc41" stroke-width="2"/>
	<g>
		<path d="M783 540 a14 14 90 0 1 14 14 V565 h-146 V554 a14 14 90 0 1 14 -14" fill="#b8e186" stroke="#b8e186" stroke-width="0"/>
		<path d="M797 565 v11 a14 14 90 0 1 -14 14 H665 a14 14 90 0 1 -14 -14 V565 H146" fill="#e6f5d0" stroke="#e6f5d0" stroke-width="0"/>
		<rect x="651" y="540" width="146" height="50" fill="none" rx="14" stroke="#7fbc41" stroke-width="2"/>
		<line x1="651" y1="565" x2="797" y2="565" stroke="#7fbc41" stroke-width="1"/>
		<text x="662" y="557.75" fill="#000000" font-family="Verdana" font-size="12">U_COMPTABILISE_F</text>
		<text x="658" y="582.8" fill="#000000" font-family="Verdana" font-size="12">F_COMPTABILISER_U</text>
	</g>
	<text x="622" y="445.96" fill="#c51b7d" font-family="Verdana" font-size="12">0,N</text>
	<text x="803" y="557" fill="#c51b7d" font-family="Verdana" font-size="12">1,1</text>
</g>

<!-- Association C_REFERENCER_F -->
<g>
	<line x1="901" y1="565" x2="724" y2="751" stroke="#7fbc41" stroke-width="2"/>
	<line x1="563" y1="751" x2="724" y2="751" stroke="#7fbc41" stroke-width="2"/>
	<g>
		<path d="M773 726 a14 14 90 0 1 14 14 V751 h-126 V740 a14 14 90 0 1 14 -14" fill="#b8e186" stroke="#b8e186" stroke-width="0"/>
		<path d="M787 751 v11 a14 14 90 0 1 -14 14 H675 a14 14 90 0 1 -14 -14 V751 H126" fill="#e6f5d0" stroke="#e6f5d0" stroke-width="0"/>
		<rect x="661" y="726" width="126" height="50" fill="none" rx="14" stroke="#7fbc41" stroke-width="2"/>
		<line x1="661" y1="751" x2="787" y2="751" stroke="#7fbc41" stroke-width="1"/>
		<text x="669" y="743.75" fill="#000000" font-family="Verdana" font-size="12">C_REFERENCER_F</text>
		<text x="668" y="768.8" fill="#000000" font-family="Verdana" font-size="12">F_REFERENCE_C</text>
	</g>
	<text x="802" y="639.48" fill="#c51b7d" font-family="Verdana" font-size="12">1,N</text>
	<text x="634" y="743" fill="#c51b7d" font-family="Verdana" font-size="12">1,1</text>
</g>

<!-- Association FACTURE_PRODUIT -->
<g>
	<line x1="901" y1="565" x2="901" y2="751" stroke="#7fbc41" stroke-width="2"/>
	<line x1="1079" y1="751" x2="901" y2="751" stroke="#7fbc41" stroke-width="2"/>
	<g>
		<path d="M954 726 a14 14 90 0 1 14 14 V751 h-134 V740 a14 14 90 0 1 14 -14" fill="#b8e186" stroke="#b8e186" stroke-width="0"/>
		<path d="M968 751 v11 a14 14 90 0 1 -14 14 H848 a14 14 90 0 1 -14 -14 V751 H134" fill="#e6f5d0" stroke="#e6f5d0" stroke-width="0"/>
		<rect x="834" y="726" width="134" height="50" fill="none" rx="14" stroke="#7fbc41" stroke-width="2"/>
		<line x1="834" y1="751" x2="968" y2="751" stroke="#7fbc41" stroke-width="1"/>
		<text x="841" y="743.75" fill="#000000" font-family="Verdana" font-size="12">FACTURE_PRODUIT</text>
	</g>
	<text x="906" y="684" fill="#c51b7d" font-family="Verdana" font-size="12">1,N</text>
	<text x="973" y="743" fill="#c51b7d" font-family="Verdana" font-size="12">0,N</text>
</g>

<!-- Association APPARTIENT -->
<g>
	<line x1="1249" y1="877" x2="1249" y2="751" stroke="#7fbc41" stroke-width="2"/>
	<line x1="1079" y1="751" x2="1249" y2="751" stroke="#7fbc41" stroke-width="2"/>
	<g>
		<path d="M1285 726 a14 14 90 0 1 14 14 V751 h-100 V740 a14 14 90 0 1 14 -14" fill="#b8e186" stroke="#b8e186" stroke-width="0"/>
		<path d="M1299 751 v11 a14 14 90 0 1 -14 14 H1213 a14 14 90 0 1 -14 -14 V751 H100" fill="#e6f5d0" stroke="#e6f5d0" stroke-width="0"/>
		<rect x="1199" y="726" width="100" height="50" fill="none" rx="14" stroke="#7fbc41" stroke-width="2"/>
		<line x1="1199" y1="751" x2="1299" y2="751" stroke="#7fbc41" stroke-width="1"/>
		<text x="1211" y="743.75" fill="#000000" font-family="Verdana" font-size="12">APPARTIENT</text>
		<text x="1206" y="768.8" fill="#000000" font-family="Verdana" font-size="12">C_DETENIR_P</text>
	</g>
	<text x="1254" y="827" fill="#c51b7d" font-family="Verdana" font-size="12">1,N</text>
	<text x="1163" y="768" fill="#c51b7d" font-family="Verdana" font-size="12">1,1</text>
</g>

<!-- Association PRODUIT_COMMANDE -->
<g>
	<line x1="563" y1="751" x2="724" y2="877" stroke="#7fbc41" stroke-width="2"/>
	<line x1="1079" y1="751" x2="724" y2="877" stroke="#7fbc41" stroke-width="2"/>
	<g>
		<path d="M785 852 a14 14 90 0 1 14 14 V877 h-150 V866 a14 14 90 0 1 14 -14" fill="#b8e186" stroke="#b8e186" stroke-width="0"/>
		<path d="M799 877 v11 a14 14 90 0 1 -14 14 H663 a14 14 90 0 1 -14 -14 V877 H150" fill="#e6f5d0" stroke="#e6f5d0" stroke-width="0"/>
		<rect x="649" y="852" width="150" height="50" fill="none" rx="14" stroke="#7fbc41" stroke-width="2"/>
		<line x1="649" y1="877" x2="799" y2="877" stroke="#7fbc41" stroke-width="1"/>
		<text x="656" y="869.75" fill="#000000" font-family="Verdana" font-size="12">PRODUIT_COMMANDE</text>
	</g>
	<text x="607.03" y="819" fill="#c51b7d" font-family="Verdana" font-size="12">1,N</text>
	<text x="973" y="773.81" fill="#c51b7d" font-family="Verdana" font-size="12">0,N</text>
</g>

<!-- Association I_APPARTIENT_P -->
<g>
	<line x1="1079" y1="751" x2="1079" y2="877" stroke="#7fbc41" stroke-width="2"/>
	<line x1="1079" y1="961" x2="1079" y2="877" stroke="#7fbc41" stroke-width="2"/>
	<g>
		<path d="M1124 852 a14 14 90 0 1 14 14 V877 h-118 V866 a14 14 90 0 1 14 -14" fill="#b8e186" stroke="#b8e186" stroke-width="0"/>
		<path d="M1138 877 v11 a14 14 90 0 1 -14 14 H1034 a14 14 90 0 1 -14 -14 V877 H118" fill="#e6f5d0" stroke="#e6f5d0" stroke-width="0"/>
		<rect x="1020" y="852" width="118" height="50" fill="none" rx="14" stroke="#7fbc41" stroke-width="2"/>
		<line x1="1020" y1="877" x2="1138" y2="877" stroke="#7fbc41" stroke-width="1"/>
		<text x="1027" y="869.75" fill="#000000" font-family="Verdana" font-size="12">I_APPARTIENT_P</text>
		<text x="1027" y="894.8" fill="#000000" font-family="Verdana" font-size="12">P_DETIENT_I</text>
	</g>
	<text x="1084" y="827" fill="#c51b7d" font-family="Verdana" font-size="12">0,N</text>
	<text x="1084" y="919" fill="#c51b7d" font-family="Verdana" font-size="12">1,1</text>
</g>

<!-- Entity CATEGORIES -->
<g>
	<g>
		<rect x="264" y="9" width="104" height="25" fill="#f1b6da" stroke="none" stroke-width="0" opacity="1"/>
		<rect x="264" y="34" width="104" height="59" fill="#fde0ef" stroke="none" stroke-width="0" opacity="1"/>
		<rect x="264" y="9" width="104" height="84" fill="none" stroke="#de77ae" stroke-width="2" opacity="1"/>
		<line x1="264" y1="34" x2="368" y2="34" stroke="#de77ae" stroke-width="1"/>
	</g>
	<text x="276" y="26.75" fill="#000000" font-family="Verdana" font-size="12">CATEGORIES</text>
	<text x="269" y="51.8" fill="#000000" font-family="Verdana" font-size="12">categorie_code</text>
	<line x1="269" y1="54" x2="362" y2="54" stroke="#000000" stroke-width="1"/>
	<text x="269" y="68.8" fill="#000000" font-family="Verdana" font-size="12">nom</text>
	<text x="269" y="85.8" fill="#000000" font-family="Verdana" font-size="12">description</text>
</g>

<!-- Entity MESSAGE -->
<g>
	<g>
		<rect x="394" y="118" width="98" height="25" fill="#f1b6da" stroke="none" stroke-width="0" opacity="1"/>
		<rect x="394" y="143" width="98" height="93" fill="#fde0ef" stroke="none" stroke-width="0" opacity="1"/>
		<rect x="394" y="118" width="98" height="118" fill="none" stroke="#de77ae" stroke-width="2" opacity="1"/>
		<line x1="394" y1="143" x2="492" y2="143" stroke="#de77ae" stroke-width="1"/>
	</g>
	<text x="413" y="135.75" fill="#000000" font-family="Verdana" font-size="12">MESSAGE</text>
	<text x="399" y="160.8" fill="#000000" font-family="Verdana" font-size="12">contact_code</text>
	<line x1="399" y1="163" x2="480" y2="163" stroke="#000000" stroke-width="1"/>
	<text x="399" y="177.8" fill="#000000" font-family="Verdana" font-size="12">pseudo</text>
	<text x="399" y="194.8" fill="#000000" font-family="Verdana" font-size="12">adresse_email</text>
	<text x="399" y="211.8" fill="#000000" font-family="Verdana" font-size="12">sujet</text>
	<text x="399" y="228.8" fill="#000000" font-family="Verdana" font-size="12">message</text>
</g>

<!-- Entity DEVIS -->
<g>
	<g>
		<rect x="853" y="92" width="96" height="25" fill="#f1b6da" stroke="none" stroke-width="0" opacity="1"/>
		<rect x="853" y="117" width="96" height="145" fill="#fde0ef" stroke="none" stroke-width="0" opacity="1"/>
		<rect x="853" y="92" width="96" height="170" fill="none" stroke="#de77ae" stroke-width="2" opacity="1"/>
		<line x1="853" y1="117" x2="949" y2="117" stroke="#de77ae" stroke-width="1"/>
	</g>
	<text x="882" y="109.75" fill="#000000" font-family="Verdana" font-size="12">DEVIS</text>
	<text x="858" y="134.8" fill="#000000" font-family="Verdana" font-size="12">devis_code</text>
	<line x1="858" y1="137" x2="926" y2="137" stroke="#000000" stroke-width="1"/>
	<text x="858" y="151.8" fill="#000000" font-family="Verdana" font-size="12">numero_devis</text>
	<text x="858" y="168.8" fill="#000000" font-family="Verdana" font-size="12">nom_client</text>
	<text x="858" y="185.8" fill="#000000" font-family="Verdana" font-size="12">date_devis</text>
	<text x="858" y="202.8" fill="#000000" font-family="Verdana" font-size="12">validite_devis</text>
	<text x="858" y="219.8" fill="#000000" font-family="Verdana" font-size="12">detail_projet</text>
	<text x="858" y="236.8" fill="#000000" font-family="Verdana" font-size="12">statut_devis</text>
</g>

<!-- Entity TAGS -->
<g>
	<g>
		<rect x="9" y="354" width="66" height="25" fill="#f1b6da" stroke="none" stroke-width="0" opacity="1"/>
		<rect x="9" y="379" width="66" height="43" fill="#fde0ef" stroke="none" stroke-width="0" opacity="1"/>
		<rect x="9" y="354" width="66" height="68" fill="none" stroke="#de77ae" stroke-width="2" opacity="1"/>
		<line x1="9" y1="379" x2="75" y2="379" stroke="#de77ae" stroke-width="1"/>
	</g>
	<text x="25" y="371.75" fill="#000000" font-family="Verdana" font-size="12">TAGS</text>
	<text x="14" y="396.8" fill="#000000" font-family="Verdana" font-size="12">tag_code</text>
	<line x1="14" y1="399" x2="70" y2="399" stroke="#000000" stroke-width="1"/>
	<text x="14" y="413.8" fill="#000000" font-family="Verdana" font-size="12">nom</text>
</g>

<!-- Entity ARTICLES -->
<g>
	<g>
		<rect x="255" y="295" width="122" height="25" fill="#f1b6da" stroke="none" stroke-width="0" opacity="1"/>
		<rect x="255" y="320" width="122" height="161" fill="#fde0ef" stroke="none" stroke-width="0" opacity="1"/>
		<rect x="255" y="295" width="122" height="186" fill="none" stroke="#de77ae" stroke-width="2" opacity="1"/>
		<line x1="255" y1="320" x2="377" y2="320" stroke="#de77ae" stroke-width="1"/>
	</g>
	<text x="286" y="312.75" fill="#000000" font-family="Verdana" font-size="12">ARTICLES</text>
	<text x="260" y="337.8" fill="#000000" font-family="Verdana" font-size="12">article_code</text>
	<line x1="260" y1="340" x2="334" y2="340" stroke="#000000" stroke-width="1"/>
	<text x="260" y="354.8" fill="#000000" font-family="Verdana" font-size="12">titre</text>
	<text x="260" y="371.8" fill="#000000" font-family="Verdana" font-size="12">contenu</text>
	<text x="260" y="388.8" fill="#000000" font-family="Verdana" font-size="12">date_publication</text>
	<text x="260" y="405.8" fill="#000000" font-family="Verdana" font-size="12">auteur</text>
	<text x="260" y="422.8" fill="#000000" font-family="Verdana" font-size="12">statut_publication</text>
	<text x="260" y="439.8" fill="#000000" font-family="Verdana" font-size="12">vues</text>
	<text x="260" y="456.8" fill="#000000" font-family="Verdana" font-size="12">image_couverture</text>
</g>

<!-- Entity UTILISATEURS -->
<g>
	<g>
		<rect x="509" y="261" width="108" height="25" fill="#f1b6da" stroke="none" stroke-width="0" opacity="1"/>
		<rect x="509" y="286" width="108" height="229" fill="#fde0ef" stroke="none" stroke-width="0" opacity="1"/>
		<rect x="509" y="261" width="108" height="254" fill="none" stroke="#de77ae" stroke-width="2" opacity="1"/>
		<line x1="509" y1="286" x2="617" y2="286" stroke="#de77ae" stroke-width="1"/>
	</g>
	<text x="518" y="278.75" fill="#000000" font-family="Verdana" font-size="12">UTILISATEURS</text>
	<text x="514" y="303.8" fill="#000000" font-family="Verdana" font-size="12">utilisateur_code</text>
	<line x1="514" y1="306" x2="611" y2="306" stroke="#000000" stroke-width="1"/>
	<text x="514" y="320.8" fill="#000000" font-family="Verdana" font-size="12">nom</text>
	<text x="514" y="337.8" fill="#000000" font-family="Verdana" font-size="12">prenom</text>
	<text x="514" y="354.8" fill="#000000" font-family="Verdana" font-size="12">societe</text>
	<text x="514" y="371.8" fill="#000000" font-family="Verdana" font-size="12">pseudo</text>
	<text x="514" y="388.8" fill="#000000" font-family="Verdana" font-size="12">adresse_email</text>
	<text x="514" y="405.8" fill="#000000" font-family="Verdana" font-size="12">mot_de_passe</text>
	<text x="514" y="422.8" fill="#000000" font-family="Verdana" font-size="12">rue</text>
	<text x="514" y="439.8" fill="#000000" font-family="Verdana" font-size="12">ville</text>
	<text x="514" y="456.8" fill="#000000" font-family="Verdana" font-size="12">code_postal</text>
	<text x="514" y="473.8" fill="#000000" font-family="Verdana" font-size="12">date_inscription</text>
	<text x="514" y="490.8" fill="#000000" font-family="Verdana" font-size="12">avatar</text>
	<text x="514" y="507.8" fill="#000000" font-family="Verdana" font-size="12">biographie</text>
</g>

<!-- Entity ROLE -->
<g>
	<g>
		<rect x="866" y="354" width="70" height="25" fill="#f1b6da" stroke="none" stroke-width="0" opacity="1"/>
		<rect x="866" y="379" width="70" height="43" fill="#fde0ef" stroke="none" stroke-width="0" opacity="1"/>
		<rect x="866" y="354" width="70" height="68" fill="none" stroke="#de77ae" stroke-width="2" opacity="1"/>
		<line x1="866" y1="379" x2="936" y2="379" stroke="#de77ae" stroke-width="1"/>
	</g>
	<text x="885" y="371.75" fill="#000000" font-family="Verdana" font-size="12">ROLE</text>
	<text x="871" y="396.8" fill="#000000" font-family="Verdana" font-size="12">role_code</text>
	<line x1="871" y1="399" x2="931" y2="399" stroke="#000000" stroke-width="1"/>
	<text x="871" y="413.8" fill="#000000" font-family="Verdana" font-size="12">nom</text>
</g>

<!-- Entity FACTURE -->
<g>
	<g>
		<rect x="829" y="463" width="144" height="25" fill="#f1b6da" stroke="none" stroke-width="0" opacity="1"/>
		<rect x="829" y="488" width="144" height="179" fill="#fde0ef" stroke="none" stroke-width="0" opacity="1"/>
		<rect x="829" y="463" width="144" height="204" fill="none" stroke="#de77ae" stroke-width="2" opacity="1"/>
		<line x1="829" y1="488" x2="973" y2="488" stroke="#de77ae" stroke-width="1"/>
	</g>
	<text x="873" y="480.75" fill="#000000" font-family="Verdana" font-size="12">FACTURE</text>
	<text x="834" y="505.8" fill="#000000" font-family="Verdana" font-size="12">facture_code</text>
	<line x1="834" y1="508" x2="913" y2="508" stroke="#000000" stroke-width="1"/>
	<text x="834" y="522.8" fill="#000000" font-family="Verdana" font-size="12">numero_facture</text>
	<text x="834" y="539.8" fill="#000000" font-family="Verdana" font-size="12">nom_client</text>
	<text x="834" y="556.8" fill="#000000" font-family="Verdana" font-size="12">date_facture</text>
	<text x="834" y="573.8" fill="#000000" font-family="Verdana" font-size="12">date_echeance</text>
	<text x="834" y="590.8" fill="#000000" font-family="Verdana" font-size="12">montant_total</text>
	<text x="834" y="607.8" fill="#000000" font-family="Verdana" font-size="12">detail_projet</text>
	<text x="834" y="624.8" fill="#000000" font-family="Verdana" font-size="12">mode_paiement</text>
	<text x="834" y="641.8" fill="#000000" font-family="Verdana" font-size="12">statut_facture</text>
	<text x="834" y="658.8" fill="#000000" font-family="Verdana" font-size="12">information_paiement</text>
</g>

<!-- Entity COMMENTAIRES -->
<g>
	<g>
		<rect x="249" y="683" width="134" height="25" fill="#f1b6da" stroke="none" stroke-width="0" opacity="1"/>
		<rect x="249" y="708" width="134" height="111" fill="#fde0ef" stroke="none" stroke-width="0" opacity="1"/>
		<rect x="249" y="683" width="134" height="136" fill="none" stroke="#de77ae" stroke-width="2" opacity="1"/>
		<line x1="249" y1="708" x2="383" y2="708" stroke="#de77ae" stroke-width="1"/>
	</g>
	<text x="266" y="700.75" fill="#000000" font-family="Verdana" font-size="12">COMMENTAIRES</text>
	<text x="254" y="725.8" fill="#000000" font-family="Verdana" font-size="12">comment_code</text>
	<line x1="254" y1="728" x2="347" y2="728" stroke="#000000" stroke-width="1"/>
	<text x="254" y="742.8" fill="#000000" font-family="Verdana" font-size="12">titre</text>
	<text x="254" y="759.8" fill="#000000" font-family="Verdana" font-size="12">contenu</text>
	<text x="254" y="776.8" fill="#000000" font-family="Verdana" font-size="12">date_commentaire</text>
	<text x="254" y="793.8" fill="#000000" font-family="Verdana" font-size="12">auteur</text>
	<text x="254" y="810.8" fill="#000000" font-family="Verdana" font-size="12">statut_commentaire</text>
</g>

<!-- Entity COMMANDE -->
<g>
	<g>
		<rect x="497" y="700" width="132" height="25" fill="#f1b6da" stroke="none" stroke-width="0" opacity="1"/>
		<rect x="497" y="725" width="132" height="77" fill="#fde0ef" stroke="none" stroke-width="0" opacity="1"/>
		<rect x="497" y="700" width="132" height="102" fill="none" stroke="#de77ae" stroke-width="2" opacity="1"/>
		<line x1="497" y1="725" x2="629" y2="725" stroke="#de77ae" stroke-width="1"/>
	</g>
	<text x="527" y="717.75" fill="#000000" font-family="Verdana" font-size="12">COMMANDE</text>
	<text x="502" y="742.8" fill="#000000" font-family="Verdana" font-size="12">commande_code</text>
	<line x1="502" y1="745" x2="605" y2="745" stroke="#000000" stroke-width="1"/>
	<text x="502" y="759.8" fill="#000000" font-family="Verdana" font-size="12">numero_commande</text>
	<text x="502" y="776.8" fill="#000000" font-family="Verdana" font-size="12">date_commande</text>
	<text x="502" y="793.8" fill="#000000" font-family="Verdana" font-size="12">statu_commande</text>
</g>

<!-- Entity PRODUIT -->
<g>
	<g>
		<rect x="1000" y="692" width="158" height="25" fill="#f1b6da" stroke="none" stroke-width="0" opacity="1"/>
		<rect x="1000" y="717" width="158" height="93" fill="#fde0ef" stroke="none" stroke-width="0" opacity="1"/>
		<rect x="1000" y="692" width="158" height="118" fill="none" stroke="#de77ae" stroke-width="2" opacity="1"/>
		<line x1="1000" y1="717" x2="1158" y2="717" stroke="#de77ae" stroke-width="1"/>
	</g>
	<text x="1051" y="709.75" fill="#000000" font-family="Verdana" font-size="12">PRODUIT</text>
	<text x="1005" y="734.8" fill="#000000" font-family="Verdana" font-size="12">produit_code</text>
	<line x1="1005" y1="737" x2="1085" y2="737" stroke="#000000" stroke-width="1"/>
	<text x="1005" y="751.8" fill="#000000" font-family="Verdana" font-size="12">nom</text>
	<text x="1005" y="768.8" fill="#000000" font-family="Verdana" font-size="12">quantite</text>
	<text x="1005" y="785.8" fill="#000000" font-family="Verdana" font-size="12">detail</text>
	<text x="1005" y="802.8" fill="#000000" font-family="Verdana" font-size="12">categoriesproduits_code</text>
</g>

<!-- Entity CATEGORIESPRODUITS -->
<g>
	<g>
		<rect x="1170" y="835" width="158" height="25" fill="#f1b6da" stroke="none" stroke-width="0" opacity="1"/>
		<rect x="1170" y="860" width="158" height="59" fill="#fde0ef" stroke="none" stroke-width="0" opacity="1"/>
		<rect x="1170" y="835" width="158" height="84" fill="none" stroke="#de77ae" stroke-width="2" opacity="1"/>
		<line x1="1170" y1="860" x2="1328" y2="860" stroke="#de77ae" stroke-width="1"/>
	</g>
	<text x="1177" y="852.75" fill="#000000" font-family="Verdana" font-size="12">CATEGORIESPRODUITS</text>
	<text x="1175" y="877.8" fill="#000000" font-family="Verdana" font-size="12">categoriesproduits_code</text>
	<line x1="1175" y1="880" x2="1323" y2="880" stroke="#000000" stroke-width="1"/>
	<text x="1175" y="894.8" fill="#000000" font-family="Verdana" font-size="12">nom</text>
</g>

<!-- Entity IMAGE -->
<g>
	<g>
		<rect x="1037" y="927" width="84" height="25" fill="#f1b6da" stroke="none" stroke-width="0" opacity="1"/>
		<rect x="1037" y="952" width="84" height="43" fill="#fde0ef" stroke="none" stroke-width="0" opacity="1"/>
		<rect x="1037" y="927" width="84" height="68" fill="none" stroke="#de77ae" stroke-width="2" opacity="1"/>
		<line x1="1037" y1="952" x2="1121" y2="952" stroke="#de77ae" stroke-width="1"/>
	</g>
	<text x="1059" y="944.75" fill="#000000" font-family="Verdana" font-size="12">IMAGE</text>
	<text x="1042" y="969.8" fill="#000000" font-family="Verdana" font-size="12">image_code</text>
	<line x1="1042" y1="972" x2="1116" y2="972" stroke="#000000" stroke-width="1"/>
	<text x="1042" y="986.8" fill="#000000" font-family="Verdana" font-size="12">photo</text>
</g>
</svg>