<?xml version="1.0" encoding="utf-8"?>
<!-- Generated by Mocodo 4.2.8 -->
<svg width="1547" height="1075" viewBox="0 0 1547 1075" xmlns="http://www.w3.org/2000/svg">
<rect x="0" y="0" width="1547" height="1075" fill="#f7f7f7" stroke="none" stroke-width="0"/>

<!-- Association PRODUIT_COMMANDE -->
<g>
	<line x1="759" y1="111" x2="588" y2="263" stroke="#4393c3" stroke-width="2"/>
	<line x1="410" y1="483" x2="588" y2="263" stroke="#4393c3" stroke-width="2"/>
	<g>
		<path d="M649 238 a14 14 90 0 1 14 14 V263 h-150 V252 a14 14 90 0 1 14 -14" fill="#92c5de" stroke="#92c5de" stroke-width="0"/>
		<path d="M663 263 v11 a14 14 90 0 1 -14 14 H527 a14 14 90 0 1 -14 -14 V263 H150" fill="#d1e5f0" stroke="#d1e5f0" stroke-width="0"/>
		<rect x="513" y="238" width="150" height="50" fill="none" rx="14" stroke="#4393c3" stroke-width="2"/>
		<line x1="513" y1="263" x2="663" y2="263" stroke="#4393c3" stroke-width="1"/>
		<text x="520" y="255.75" fill="#000000" font-family="Verdana" font-size="12">PRODUIT_COMMANDE</text>
	</g>
	<text x="666" y="168.15" fill="#b2182b" font-family="Verdana" font-size="12">1,N</text>
	<text x="450.51" y="399" fill="#b2182b" font-family="Verdana" font-size="12">0,N</text>
</g>

<!-- Association C_REFERENCER_F -->
<g>
	<line x1="759" y1="483" x2="759" y2="263" stroke="#4393c3" stroke-width="2"/>
	<line x1="759" y1="111" x2="759" y2="263" stroke="#4393c3" stroke-width="2"/>
	<g>
		<path d="M808 238 a14 14 90 0 1 14 14 V263 h-126 V252 a14 14 90 0 1 14 -14" fill="#92c5de" stroke="#92c5de" stroke-width="0"/>
		<path d="M822 263 v11 a14 14 90 0 1 -14 14 H710 a14 14 90 0 1 -14 -14 V263 H126" fill="#d1e5f0" stroke="#d1e5f0" stroke-width="0"/>
		<rect x="696" y="238" width="126" height="50" fill="none" rx="14" stroke="#4393c3" stroke-width="2"/>
		<line x1="696" y1="263" x2="822" y2="263" stroke="#4393c3" stroke-width="1"/>
		<text x="704" y="255.75" fill="#000000" font-family="Verdana" font-size="12">C_REFERENCER_F</text>
		<text x="703" y="280.8" fill="#000000" font-family="Verdana" font-size="12">F_REFERENCE_C</text>
	</g>
	<text x="764" y="365" fill="#b2182b" font-family="Verdana" font-size="12">1,N</text>
	<text x="764" y="230" fill="#b2182b" font-family="Verdana" font-size="12">1,1</text>
</g>

<!-- Association COMMANDER -->
<g>
	<line x1="1095" y1="483" x2="936" y2="263" stroke="#4393c3" stroke-width="2"/>
	<line x1="759" y1="111" x2="936" y2="263" stroke="#4393c3" stroke-width="2"/>
	<g>
		<path d="M970 238 a14 14 90 0 1 14 14 V263 h-96 V252 a14 14 90 0 1 14 -14" fill="#92c5de" stroke="#92c5de" stroke-width="0"/>
		<path d="M984 263 v11 a14 14 90 0 1 -14 14 H902 a14 14 90 0 1 -14 -14 V263 H96" fill="#d1e5f0" stroke="#d1e5f0" stroke-width="0"/>
		<rect x="888" y="238" width="96" height="50" fill="none" rx="14" stroke="#4393c3" stroke-width="2"/>
		<line x1="888" y1="263" x2="984" y2="263" stroke="#4393c3" stroke-width="1"/>
		<text x="896" y="255.75" fill="#000000" font-family="Verdana" font-size="12">COMMANDER</text>
		<text x="895" y="280.8" fill="#000000" font-family="Verdana" font-size="12">COMMANDE</text>
	</g>
	<text x="1014" y="419.8" fill="#b2182b" font-family="Verdana" font-size="12">0,N</text>
	<text x="830" y="165.99" fill="#b2182b" font-family="Verdana" font-size="12">1,1</text>
</g>

<!-- Association ENVOYER -->
<g>
	<line x1="1095" y1="483" x2="1095" y2="263" stroke="#4393c3" stroke-width="2"/>
	<line x1="1095" y1="111" x2="1095" y2="263" stroke="#4393c3" stroke-width="2"/>
	<g>
		<path d="M1118 238 a14 14 90 0 1 14 14 V263 h-74 V252 a14 14 90 0 1 14 -14" fill="#92c5de" stroke="#92c5de" stroke-width="0"/>
		<path d="M1132 263 v11 a14 14 90 0 1 -14 14 H1072 a14 14 90 0 1 -14 -14 V263 H74" fill="#d1e5f0" stroke="#d1e5f0" stroke-width="0"/>
		<rect x="1058" y="238" width="74" height="50" fill="none" rx="14" stroke="#4393c3" stroke-width="2"/>
		<line x1="1058" y1="263" x2="1132" y2="263" stroke="#4393c3" stroke-width="1"/>
		<text x="1066" y="255.75" fill="#000000" font-family="Verdana" font-size="12">ENVOYER</text>
		<text x="1065" y="280.8" fill="#000000" font-family="Verdana" font-size="12">ENVOYE</text>
	</g>
	<text x="1100" y="305" fill="#b2182b" font-family="Verdana" font-size="12">0,N</text>
	<text x="1100" y="196" fill="#b2182b" font-family="Verdana" font-size="12">1,1</text>
</g>

<!-- Association AJOUTER -->
<g>
	<line x1="1095" y1="483" x2="1283" y2="263" stroke="#4393c3" stroke-width="2"/>
	<line x1="1474" y1="263" x2="1283" y2="263" stroke="#4393c3" stroke-width="2"/>
	<g>
		<path d="M1304 238 a14 14 90 0 1 14 14 V263 h-70 V252 a14 14 90 0 1 14 -14" fill="#92c5de" stroke="#92c5de" stroke-width="0"/>
		<path d="M1318 263 v11 a14 14 90 0 1 -14 14 H1262 a14 14 90 0 1 -14 -14 V263 H70" fill="#d1e5f0" stroke="#d1e5f0" stroke-width="0"/>
		<rect x="1248" y="238" width="70" height="50" fill="none" rx="14" stroke="#4393c3" stroke-width="2"/>
		<line x1="1248" y1="263" x2="1318" y2="263" stroke="#4393c3" stroke-width="1"/>
		<text x="1255" y="255.75" fill="#000000" font-family="Verdana" font-size="12">AJOUTER</text>
	</g>
	<text x="1154" y="430.52" fill="#b2182b" font-family="Verdana" font-size="12">0,N</text>
	<text x="1394" y="280" fill="#b2182b" font-family="Verdana" font-size="12">1,1</text>
</g>

<!-- Association APPARTIENT -->
<g>
	<line x1="88" y1="483" x2="249" y2="483" stroke="#4393c3" stroke-width="2"/>
	<line x1="410" y1="483" x2="249" y2="483" stroke="#4393c3" stroke-width="2"/>
	<g>
		<path d="M285 458 a14 14 90 0 1 14 14 V483 h-100 V472 a14 14 90 0 1 14 -14" fill="#92c5de" stroke="#92c5de" stroke-width="0"/>
		<path d="M299 483 v11 a14 14 90 0 1 -14 14 H213 a14 14 90 0 1 -14 -14 V483 H100" fill="#d1e5f0" stroke="#d1e5f0" stroke-width="0"/>
		<rect x="199" y="458" width="100" height="50" fill="none" rx="14" stroke="#4393c3" stroke-width="2"/>
		<line x1="199" y1="483" x2="299" y2="483" stroke="#4393c3" stroke-width="1"/>
		<text x="211" y="475.75" fill="#000000" font-family="Verdana" font-size="12">APPARTIENT</text>
		<text x="206" y="500.8" fill="#000000" font-family="Verdana" font-size="12">C_DETENIR_P</text>
	</g>
	<text x="172" y="500" fill="#b2182b" font-family="Verdana" font-size="12">1,N</text>
	<text x="305" y="500" fill="#b2182b" font-family="Verdana" font-size="12">1,1</text>
</g>

<!-- Association PRODUIT_FACTURE -->
<g>
	<line x1="759" y1="483" x2="588" y2="483" stroke="#4393c3" stroke-width="2"/>
	<line x1="410" y1="483" x2="588" y2="483" stroke="#4393c3" stroke-width="2"/>
	<g>
		<path d="M641 458 a14 14 90 0 1 14 14 V483 h-134 V472 a14 14 90 0 1 14 -14" fill="#92c5de" stroke="#92c5de" stroke-width="0"/>
		<path d="M655 483 v11 a14 14 90 0 1 -14 14 H535 a14 14 90 0 1 -14 -14 V483 H134" fill="#d1e5f0" stroke="#d1e5f0" stroke-width="0"/>
		<rect x="521" y="458" width="134" height="50" fill="none" rx="14" stroke="#4393c3" stroke-width="2"/>
		<line x1="521" y1="483" x2="655" y2="483" stroke="#4393c3" stroke-width="1"/>
		<text x="528" y="475.75" fill="#000000" font-family="Verdana" font-size="12">PRODUIT_FACTURE</text>
	</g>
	<text x="660" y="500" fill="#b2182b" font-family="Verdana" font-size="12">1,N</text>
	<text x="494" y="500" fill="#b2182b" font-family="Verdana" font-size="12">0,N</text>
</g>

<!-- Association U_COMPTABILISE_F -->
<g>
	<line x1="1095" y1="483" x2="936" y2="483" stroke="#4393c3" stroke-width="2"/>
	<line x1="759" y1="483" x2="936" y2="483" stroke="#4393c3" stroke-width="2"/>
	<g>
		<path d="M995 458 a14 14 90 0 1 14 14 V483 h-146 V472 a14 14 90 0 1 14 -14" fill="#92c5de" stroke="#92c5de" stroke-width="0"/>
		<path d="M1009 483 v11 a14 14 90 0 1 -14 14 H877 a14 14 90 0 1 -14 -14 V483 H146" fill="#d1e5f0" stroke="#d1e5f0" stroke-width="0"/>
		<rect x="863" y="458" width="146" height="50" fill="none" rx="14" stroke="#4393c3" stroke-width="2"/>
		<line x1="863" y1="483" x2="1009" y2="483" stroke="#4393c3" stroke-width="1"/>
		<text x="874" y="475.75" fill="#000000" font-family="Verdana" font-size="12">U_COMPTABILISE_F</text>
		<text x="870" y="500.8" fill="#000000" font-family="Verdana" font-size="12">F_COMPTABILISER_U</text>
	</g>
	<text x="1014" y="500" fill="#b2182b" font-family="Verdana" font-size="12">0,N</text>
	<text x="836" y="500" fill="#b2182b" font-family="Verdana" font-size="12">1,1</text>
</g>

<!-- Association POSSEDER -->
<g>
	<line x1="1095" y1="483" x2="1283" y2="483" stroke="#4393c3" stroke-width="2"/>
	<line x1="1474" y1="483" x2="1283" y2="483" stroke="#4393c3" stroke-width="2"/>
	<g>
		<path d="M1310 458 a14 14 90 0 1 14 14 V483 h-82 V472 a14 14 90 0 1 14 -14" fill="#92c5de" stroke="#92c5de" stroke-width="0"/>
		<path d="M1324 483 v11 a14 14 90 0 1 -14 14 H1256 a14 14 90 0 1 -14 -14 V483 H82" fill="#d1e5f0" stroke="#d1e5f0" stroke-width="0"/>
		<rect x="1242" y="458" width="82" height="50" fill="none" rx="14" stroke="#4393c3" stroke-width="2"/>
		<line x1="1242" y1="483" x2="1324" y2="483" stroke="#4393c3" stroke-width="1"/>
		<text x="1250" y="475.75" fill="#000000" font-family="Verdana" font-size="12">POSSEDER</text>
		<text x="1249" y="500.8" fill="#000000" font-family="Verdana" font-size="12">POSSEDE</text>
	</g>
	<text x="1154" y="500" fill="#b2182b" font-family="Verdana" font-size="12">1,1</text>
	<text x="1412" y="500" fill="#b2182b" font-family="Verdana" font-size="12">0,N</text>
</g>

<!-- Association I_APPARTIENT_P -->
<g>
	<line x1="410" y1="483" x2="410" y2="703" stroke="#4393c3" stroke-width="2"/>
	<line x1="410" y1="863" x2="410" y2="703" stroke="#4393c3" stroke-width="2"/>
	<g>
		<path d="M455 678 a14 14 90 0 1 14 14 V703 h-118 V692 a14 14 90 0 1 14 -14" fill="#92c5de" stroke="#92c5de" stroke-width="0"/>
		<path d="M469 703 v11 a14 14 90 0 1 -14 14 H365 a14 14 90 0 1 -14 -14 V703 H118" fill="#d1e5f0" stroke="#d1e5f0" stroke-width="0"/>
		<rect x="351" y="678" width="118" height="50" fill="none" rx="14" stroke="#4393c3" stroke-width="2"/>
		<line x1="351" y1="703" x2="469" y2="703" stroke="#4393c3" stroke-width="1"/>
		<text x="358" y="695.75" fill="#000000" font-family="Verdana" font-size="12">I_APPARTIENT_P</text>
		<text x="358" y="720.8" fill="#000000" font-family="Verdana" font-size="12">P_DETIENT_I</text>
	</g>
	<text x="383" y="576" fill="#b2182b" font-family="Verdana" font-size="12">0,N</text>
	<text x="415" y="813" fill="#b2182b" font-family="Verdana" font-size="12">1,1</text>
</g>

<!-- Association PRODUIT_DEVIS -->
<g>
	<line x1="410" y1="483" x2="588" y2="703" stroke="#4393c3" stroke-width="2"/>
	<line x1="759" y1="863" x2="588" y2="703" stroke="#4393c3" stroke-width="2"/>
	<g>
		<path d="M632 678 a14 14 90 0 1 14 14 V703 h-116 V692 a14 14 90 0 1 14 -14" fill="#92c5de" stroke="#92c5de" stroke-width="0"/>
		<path d="M646 703 v11 a14 14 90 0 1 -14 14 H544 a14 14 90 0 1 -14 -14 V703 H116" fill="#d1e5f0" stroke="#d1e5f0" stroke-width="0"/>
		<rect x="530" y="678" width="116" height="50" fill="none" rx="14" stroke="#4393c3" stroke-width="2"/>
		<line x1="530" y1="703" x2="646" y2="703" stroke="#4393c3" stroke-width="1"/>
		<text x="537" y="695.75" fill="#000000" font-family="Verdana" font-size="12">PRODUIT_DEVIS</text>
	</g>
	<text x="450.51" y="576" fill="#b2182b" font-family="Verdana" font-size="12">1,N</text>
	<text x="678" y="822.73" fill="#b2182b" font-family="Verdana" font-size="12">1,N</text>
</g>

<!-- Association F_REFERENCE_D -->
<g>
	<line x1="759" y1="483" x2="759" y2="703" stroke="#4393c3" stroke-width="2"/>
	<line x1="759" y1="863" x2="759" y2="703" stroke="#4393c3" stroke-width="2"/>
	<g>
		<path d="M808 678 a14 14 90 0 1 14 14 V703 h-126 V692 a14 14 90 0 1 14 -14" fill="#92c5de" stroke="#92c5de" stroke-width="0"/>
		<path d="M822 703 v11 a14 14 90 0 1 -14 14 H710 a14 14 90 0 1 -14 -14 V703 H126" fill="#d1e5f0" stroke="#d1e5f0" stroke-width="0"/>
		<rect x="696" y="678" width="126" height="50" fill="none" rx="14" stroke="#4393c3" stroke-width="2"/>
		<line x1="696" y1="703" x2="822" y2="703" stroke="#4393c3" stroke-width="1"/>
		<text x="707" y="695.75" fill="#000000" font-family="Verdana" font-size="12">F_REFERENCE_D</text>
		<text x="703" y="720.8" fill="#000000" font-family="Verdana" font-size="12">D_REFERENCER_F</text>
	</g>
	<text x="764" y="610" fill="#b2182b" font-family="Verdana" font-size="12">1,N</text>
	<text x="764" y="753" fill="#b2182b" font-family="Verdana" font-size="12">1,1</text>
</g>

<!-- Association U_DETENIR_D -->
<g>
	<line x1="1095" y1="483" x2="936" y2="703" stroke="#4393c3" stroke-width="2"/>
	<line x1="759" y1="863" x2="936" y2="703" stroke="#4393c3" stroke-width="2"/>
	<g>
		<path d="M974 678 a14 14 90 0 1 14 14 V703 h-104 V692 a14 14 90 0 1 14 -14" fill="#92c5de" stroke="#92c5de" stroke-width="0"/>
		<path d="M988 703 v11 a14 14 90 0 1 -14 14 H898 a14 14 90 0 1 -14 -14 V703 H104" fill="#d1e5f0" stroke="#d1e5f0" stroke-width="0"/>
		<rect x="884" y="678" width="104" height="50" fill="none" rx="14" stroke="#4393c3" stroke-width="2"/>
		<line x1="884" y1="703" x2="988" y2="703" stroke="#4393c3" stroke-width="1"/>
		<text x="892" y="695.75" fill="#000000" font-family="Verdana" font-size="12">U_DETENIR_D</text>
		<text x="891" y="720.8" fill="#000000" font-family="Verdana" font-size="12">D_DETENU_U</text>
	</g>
	<text x="1014" y="555.2" fill="#b2182b" font-family="Verdana" font-size="12">0,N</text>
	<text x="818" y="824.62" fill="#b2182b" font-family="Verdana" font-size="12">1,1</text>
</g>

<!-- Association COMMENTE -->
<g>
	<line x1="1095" y1="863" x2="1095" y2="703" stroke="#4393c3" stroke-width="2"/>
	<line x1="1283" y1="703" x2="1095" y2="703" stroke="#4393c3" stroke-width="2"/>
	<g>
		<path d="M1128 678 a14 14 90 0 1 14 14 V703 h-94 V692 a14 14 90 0 1 14 -14" fill="#92c5de" stroke="#92c5de" stroke-width="0"/>
		<path d="M1142 703 v11 a14 14 90 0 1 -14 14 H1062 a14 14 90 0 1 -14 -14 V703 H94" fill="#d1e5f0" stroke="#d1e5f0" stroke-width="0"/>
		<rect x="1048" y="678" width="94" height="50" fill="none" rx="14" stroke="#4393c3" stroke-width="2"/>
		<line x1="1048" y1="703" x2="1142" y2="703" stroke="#4393c3" stroke-width="1"/>
		<text x="1060" y="695.75" fill="#000000" font-family="Verdana" font-size="12">COMMENTE</text>
		<text x="1055" y="720.8" fill="#000000" font-family="Verdana" font-size="12">COMMENTER</text>
	</g>
	<text x="1100" y="745" fill="#b2182b" font-family="Verdana" font-size="12">0,N</text>
	<text x="1190" y="720" fill="#b2182b" font-family="Verdana" font-size="12">1,1</text>
</g>

<!-- Association AIME_1_ARTICLE -->
<g>
	<line x1="1095" y1="483" x2="1474" y2="703" stroke="#4393c3" stroke-width="2"/>
	<line x1="1474" y1="863" x2="1474" y2="703" stroke="#4393c3" stroke-width="2"/>
	<g>
		<path d="M1521 678 a14 14 90 0 1 14 14 V703 h-122 V692 a14 14 90 0 1 14 -14" fill="#92c5de" stroke="#92c5de" stroke-width="0"/>
		<path d="M1535 703 v11 a14 14 90 0 1 -14 14 H1427 a14 14 90 0 1 -14 -14 V703 H122" fill="#d1e5f0" stroke="#d1e5f0" stroke-width="0"/>
		<rect x="1413" y="678" width="122" height="50" fill="none" rx="14" stroke="#4393c3" stroke-width="2"/>
		<line x1="1413" y1="703" x2="1535" y2="703" stroke="#4393c3" stroke-width="1"/>
		<text x="1421" y="695.75" fill="#000000" font-family="Verdana" font-size="12">AIME_1_ARTICLE</text>
	</g>
	<text x="1154" y="510.85" fill="#b2182b" font-family="Verdana" font-size="12">0,1</text>
	<text x="1479" y="804" fill="#b2182b" font-family="Verdana" font-size="12">0,N</text>
</g>

<!-- Association PUBLIER -->
<g>
	<line x1="1095" y1="483" x2="936" y2="863" stroke="#4393c3" stroke-width="2"/>
	<line x1="1095" y1="863" x2="936" y2="863" stroke="#4393c3" stroke-width="2"/>
	<g>
		<path d="M956 838 a14 14 90 0 1 14 14 V863 h-68 V852 a14 14 90 0 1 14 -14" fill="#92c5de" stroke="#92c5de" stroke-width="0"/>
		<path d="M970 863 v11 a14 14 90 0 1 -14 14 H916 a14 14 90 0 1 -14 -14 V863 H68" fill="#d1e5f0" stroke="#d1e5f0" stroke-width="0"/>
		<rect x="902" y="838" width="68" height="50" fill="none" rx="14" stroke="#4393c3" stroke-width="2"/>
		<line x1="902" y1="863" x2="970" y2="863" stroke="#4393c3" stroke-width="1"/>
		<text x="910" y="855.75" fill="#000000" font-family="Verdana" font-size="12">PUBLIER</text>
	</g>
	<text x="1014" y="607.33" fill="#b2182b" font-family="Verdana" font-size="12">0,N</text>
	<text x="1008" y="855" fill="#b2182b" font-family="Verdana" font-size="12">1,1</text>
</g>

<!-- Association AIMER_PAR_1_UTILISATEUR -->
<g>
	<line x1="1095" y1="863" x2="1283" y2="863" stroke="#4393c3" stroke-width="2"/>
	<line x1="1474" y1="863" x2="1283" y2="863" stroke="#4393c3" stroke-width="2"/>
	<g>
		<path d="M1364 838 a14 14 90 0 1 14 14 V863 h-190 V852 a14 14 90 0 1 14 -14" fill="#92c5de" stroke="#92c5de" stroke-width="0"/>
		<path d="M1378 863 v11 a14 14 90 0 1 -14 14 H1202 a14 14 90 0 1 -14 -14 V863 H190" fill="#d1e5f0" stroke="#d1e5f0" stroke-width="0"/>
		<rect x="1188" y="838" width="190" height="50" fill="none" rx="14" stroke="#4393c3" stroke-width="2"/>
		<line x1="1188" y1="863" x2="1378" y2="863" stroke="#4393c3" stroke-width="1"/>
		<text x="1195" y="855.75" fill="#000000" font-family="Verdana" font-size="12">AIMER_PAR_1_UTILISATEUR</text>
	</g>
	<text x="1161" y="880" fill="#b2182b" font-family="Verdana" font-size="12">0,1</text>
	<text x="1383" y="880" fill="#b2182b" font-family="Verdana" font-size="12">0,N</text>
</g>

<!-- Association ARTICLES_TAGS -->
<g>
	<line x1="1095" y1="863" x2="936" y2="1024" stroke="#4393c3" stroke-width="2"/>
	<line x1="759" y1="1024" x2="936" y2="1024" stroke="#4393c3" stroke-width="2"/>
	<g>
		<path d="M980 999 a14 14 90 0 1 14 14 V1024 h-116 V1013 a14 14 90 0 1 14 -14" fill="#92c5de" stroke="#92c5de" stroke-width="0"/>
		<path d="M994 1024 v11 a14 14 90 0 1 -14 14 H892 a14 14 90 0 1 -14 -14 V1024 H116" fill="#d1e5f0" stroke="#d1e5f0" stroke-width="0"/>
		<rect x="878" y="999" width="116" height="50" fill="none" rx="14" stroke="#4393c3" stroke-width="2"/>
		<line x1="878" y1="1024" x2="994" y2="1024" stroke="#4393c3" stroke-width="1"/>
		<text x="885" y="1016.75" fill="#000000" font-family="Verdana" font-size="12">ARTICLES_TAGS</text>
	</g>
	<text x="1007" y="923.78" fill="#b2182b" font-family="Verdana" font-size="12">0,N</text>
	<text x="797" y="1041" fill="#b2182b" font-family="Verdana" font-size="12">0,N</text>
</g>

<!-- Association DETIENT -->
<g>
	<line x1="1283" y1="1024" x2="1095" y2="1024" stroke="#4393c3" stroke-width="2"/>
	<line x1="1095" y1="863" x2="1095" y2="1024" stroke="#4393c3" stroke-width="2"/>
	<g>
		<path d="M1118 999 a14 14 90 0 1 14 14 V1024 h-74 V1013 a14 14 90 0 1 14 -14" fill="#92c5de" stroke="#92c5de" stroke-width="0"/>
		<path d="M1132 1024 v11 a14 14 90 0 1 -14 14 H1072 a14 14 90 0 1 -14 -14 V1024 H74" fill="#d1e5f0" stroke="#d1e5f0" stroke-width="0"/>
		<rect x="1058" y="999" width="74" height="50" fill="none" rx="14" stroke="#4393c3" stroke-width="2"/>
		<line x1="1058" y1="1024" x2="1132" y2="1024" stroke="#4393c3" stroke-width="1"/>
		<text x="1068" y="1016.75" fill="#000000" font-family="Verdana" font-size="12">DETIENT</text>
		<text x="1065" y="1041.8" fill="#000000" font-family="Verdana" font-size="12">DETENUS</text>
	</g>
	<text x="1180" y="1041" fill="#b2182b" font-family="Verdana" font-size="12">0,N</text>
	<text x="1100" y="990" fill="#b2182b" font-family="Verdana" font-size="12">1,1</text>
</g>

<!-- Entity COMMANDE -->
<g>
	<g>
		<rect x="693" y="9" width="132" height="25" fill="#f4a582" stroke="none" stroke-width="0" opacity="1"/>
		<rect x="693" y="34" width="132" height="179" fill="#fddbc7" stroke="none" stroke-width="0" opacity="1"/>
		<rect x="693" y="9" width="132" height="204" fill="none" stroke="#d6604d" stroke-width="2" opacity="1"/>
		<line x1="693" y1="34" x2="825" y2="34" stroke="#d6604d" stroke-width="1"/>
	</g>
	<text x="723" y="26.75" fill="#000000" font-family="Verdana" font-size="12">COMMANDE</text>
	<text x="698" y="51.8" fill="#000000" font-family="Verdana" font-size="12">commande_code</text>
	<line x1="698" y1="54" x2="801" y2="54" stroke="#000000" stroke-width="1"/>
	<text x="698" y="68.8" fill="#000000" font-family="Verdana" font-size="12">numero_commande</text>
	<text x="698" y="85.8" fill="#000000" font-family="Verdana" font-size="12">date_commande</text>
	<text x="698" y="102.8" fill="#000000" font-family="Verdana" font-size="12">nom_client</text>
	<text x="698" y="119.8" fill="#000000" font-family="Verdana" font-size="12">validite_commande</text>
	<text x="698" y="136.8" fill="#000000" font-family="Verdana" font-size="12">detail_projet</text>
	<text x="698" y="153.8" fill="#000000" font-family="Verdana" font-size="12">statut_commande</text>
	<text x="698" y="170.8" fill="#000000" font-family="Verdana" font-size="12">utilisateur_code</text>
	<text x="698" y="187.8" fill="#000000" font-family="Verdana" font-size="12">facture_code</text>
	<text x="698" y="204.8" fill="#000000" font-family="Verdana" font-size="12">vendu</text>
</g>

<!-- Entity MESSAGE -->
<g>
	<g>
		<rect x="1041" y="43" width="108" height="25" fill="#f4a582" stroke="none" stroke-width="0" opacity="1"/>
		<rect x="1041" y="68" width="108" height="111" fill="#fddbc7" stroke="none" stroke-width="0" opacity="1"/>
		<rect x="1041" y="43" width="108" height="136" fill="none" stroke="#d6604d" stroke-width="2" opacity="1"/>
		<line x1="1041" y1="68" x2="1149" y2="68" stroke="#d6604d" stroke-width="1"/>
	</g>
	<text x="1065" y="60.75" fill="#000000" font-family="Verdana" font-size="12">MESSAGE</text>
	<text x="1046" y="85.8" fill="#000000" font-family="Verdana" font-size="12">message_code</text>
	<line x1="1046" y1="88" x2="1136" y2="88" stroke="#000000" stroke-width="1"/>
	<text x="1046" y="102.8" fill="#000000" font-family="Verdana" font-size="12">pseudo</text>
	<text x="1046" y="119.8" fill="#000000" font-family="Verdana" font-size="12">email</text>
	<text x="1046" y="136.8" fill="#000000" font-family="Verdana" font-size="12">sujet</text>
	<text x="1046" y="153.8" fill="#000000" font-family="Verdana" font-size="12">message</text>
	<text x="1046" y="170.8" fill="#000000" font-family="Verdana" font-size="12">utilisateur_code</text>
</g>

<!-- Entity PORTFOLIO -->
<g>
	<g>
		<rect x="1420" y="187" width="108" height="25" fill="#f4a582" stroke="none" stroke-width="0" opacity="1"/>
		<rect x="1420" y="212" width="108" height="127" fill="#fddbc7" stroke="none" stroke-width="0" opacity="1"/>
		<rect x="1420" y="187" width="108" height="152" fill="none" stroke="#d6604d" stroke-width="2" opacity="1"/>
		<line x1="1420" y1="212" x2="1528" y2="212" stroke="#d6604d" stroke-width="1"/>
	</g>
	<text x="1439" y="204.75" fill="#000000" font-family="Verdana" font-size="12">PORTFOLIO</text>
	<text x="1425" y="229.8" fill="#000000" font-family="Verdana" font-size="12">portfolio_code</text>
	<line x1="1425" y1="232" x2="1512" y2="232" stroke="#000000" stroke-width="1"/>
	<text x="1425" y="246.8" fill="#000000" font-family="Verdana" font-size="12">nom</text>
	<text x="1425" y="263.8" fill="#000000" font-family="Verdana" font-size="12">taille</text>
	<text x="1425" y="280.8" fill="#000000" font-family="Verdana" font-size="12">type</text>
	<text x="1425" y="297.8" fill="#000000" font-family="Verdana" font-size="12">description</text>
	<text x="1425" y="314.8" fill="#000000" font-family="Verdana" font-size="12">url</text>
	<text x="1425" y="331.8" fill="#000000" font-family="Verdana" font-size="12">utilisateur_code</text>
</g>

<!-- Entity CATEGORIESPRODUITS -->
<g>
	<g>
		<rect x="9" y="441" width="158" height="25" fill="#f4a582" stroke="none" stroke-width="0" opacity="1"/>
		<rect x="9" y="466" width="158" height="59" fill="#fddbc7" stroke="none" stroke-width="0" opacity="1"/>
		<rect x="9" y="441" width="158" height="84" fill="none" stroke="#d6604d" stroke-width="2" opacity="1"/>
		<line x1="9" y1="466" x2="167" y2="466" stroke="#d6604d" stroke-width="1"/>
	</g>
	<text x="16" y="458.75" fill="#000000" font-family="Verdana" font-size="12">CATEGORIESPRODUITS</text>
	<text x="14" y="483.8" fill="#000000" font-family="Verdana" font-size="12">categoriesproduits_code</text>
	<line x1="14" y1="486" x2="162" y2="486" stroke="#000000" stroke-width="1"/>
	<text x="14" y="500.8" fill="#000000" font-family="Verdana" font-size="12">nom</text>
</g>

<!-- Entity PRODUIT -->
<g>
	<g>
		<rect x="331" y="407" width="158" height="25" fill="#f4a582" stroke="none" stroke-width="0" opacity="1"/>
		<rect x="331" y="432" width="158" height="127" fill="#fddbc7" stroke="none" stroke-width="0" opacity="1"/>
		<rect x="331" y="407" width="158" height="152" fill="none" stroke="#d6604d" stroke-width="2" opacity="1"/>
		<line x1="331" y1="432" x2="489" y2="432" stroke="#d6604d" stroke-width="1"/>
	</g>
	<text x="382" y="424.75" fill="#000000" font-family="Verdana" font-size="12">PRODUIT</text>
	<text x="336" y="449.8" fill="#000000" font-family="Verdana" font-size="12">produit_code</text>
	<line x1="336" y1="452" x2="416" y2="452" stroke="#000000" stroke-width="1"/>
	<text x="336" y="466.8" fill="#000000" font-family="Verdana" font-size="12">nom</text>
	<text x="336" y="483.8" fill="#000000" font-family="Verdana" font-size="12">quantite</text>
	<text x="336" y="500.8" fill="#000000" font-family="Verdana" font-size="12">detail</text>
	<text x="336" y="517.8" fill="#000000" font-family="Verdana" font-size="12">tarif</text>
	<text x="336" y="534.8" fill="#000000" font-family="Verdana" font-size="12">statut</text>
	<text x="336" y="551.8" fill="#000000" font-family="Verdana" font-size="12">categoriesproduits_code</text>
</g>

<!-- Entity FACTURE -->
<g>
	<g>
		<rect x="687" y="373" width="144" height="25" fill="#f4a582" stroke="none" stroke-width="0" opacity="1"/>
		<rect x="687" y="398" width="144" height="195" fill="#fddbc7" stroke="none" stroke-width="0" opacity="1"/>
		<rect x="687" y="373" width="144" height="220" fill="none" stroke="#d6604d" stroke-width="2" opacity="1"/>
		<line x1="687" y1="398" x2="831" y2="398" stroke="#d6604d" stroke-width="1"/>
	</g>
	<text x="731" y="390.75" fill="#000000" font-family="Verdana" font-size="12">FACTURE</text>
	<text x="692" y="415.8" fill="#000000" font-family="Verdana" font-size="12">facture_code</text>
	<line x1="692" y1="418" x2="771" y2="418" stroke="#000000" stroke-width="1"/>
	<text x="692" y="432.8" fill="#000000" font-family="Verdana" font-size="12">numero_facture</text>
	<text x="692" y="449.8" fill="#000000" font-family="Verdana" font-size="12">nom_client</text>
	<text x="692" y="466.8" fill="#000000" font-family="Verdana" font-size="12">date_facture</text>
	<text x="692" y="483.8" fill="#000000" font-family="Verdana" font-size="12">date_echeance</text>
	<text x="692" y="500.8" fill="#000000" font-family="Verdana" font-size="12">montant_total</text>
	<text x="692" y="517.8" fill="#000000" font-family="Verdana" font-size="12">detail_projet</text>
	<text x="692" y="534.8" fill="#000000" font-family="Verdana" font-size="12">mode_paiement</text>
	<text x="692" y="551.8" fill="#000000" font-family="Verdana" font-size="12">statut_facture</text>
	<text x="692" y="568.8" fill="#000000" font-family="Verdana" font-size="12">information_paiement</text>
	<text x="692" y="585.8" fill="#000000" font-family="Verdana" font-size="12">utilisateur_code</text>
</g>

<!-- Entity UTILISATEURS -->
<g>
	<g>
		<rect x="1041" y="313" width="108" height="25" fill="#f4a582" stroke="none" stroke-width="0" opacity="1"/>
		<rect x="1041" y="338" width="108" height="315" fill="#fddbc7" stroke="none" stroke-width="0" opacity="1"/>
		<rect x="1041" y="313" width="108" height="340" fill="none" stroke="#d6604d" stroke-width="2" opacity="1"/>
		<line x1="1041" y1="338" x2="1149" y2="338" stroke="#d6604d" stroke-width="1"/>
	</g>
	<text x="1050" y="330.75" fill="#000000" font-family="Verdana" font-size="12">UTILISATEURS</text>
	<text x="1046" y="355.8" fill="#000000" font-family="Verdana" font-size="12">utilisateur_code</text>
	<line x1="1046" y1="358" x2="1143" y2="358" stroke="#000000" stroke-width="1"/>
	<text x="1046" y="372.8" fill="#000000" font-family="Verdana" font-size="12">nom</text>
	<text x="1046" y="389.8" fill="#000000" font-family="Verdana" font-size="12">prenom</text>
	<text x="1046" y="406.8" fill="#000000" font-family="Verdana" font-size="12">societe</text>
	<text x="1046" y="423.8" fill="#000000" font-family="Verdana" font-size="12">telephone</text>
	<text x="1046" y="440.8" fill="#000000" font-family="Verdana" font-size="12">numero_tva</text>
	<text x="1046" y="457.8" fill="#000000" font-family="Verdana" font-size="12">siret</text>
	<text x="1046" y="474.8" fill="#000000" font-family="Verdana" font-size="12">pseudo</text>
	<text x="1046" y="491.8" fill="#000000" font-family="Verdana" font-size="12">statut</text>
	<text x="1046" y="508.8" fill="#000000" font-family="Verdana" font-size="12">email</text>
	<text x="1046" y="525.8" fill="#000000" font-family="Verdana" font-size="12">mot_de_passe</text>
	<text x="1046" y="542.8" fill="#000000" font-family="Verdana" font-size="12">rue</text>
	<text x="1046" y="559.8" fill="#000000" font-family="Verdana" font-size="12">ville</text>
	<text x="1046" y="576.8" fill="#000000" font-family="Verdana" font-size="12">code_postal</text>
	<text x="1046" y="593.8" fill="#000000" font-family="Verdana" font-size="12">date_inscription</text>
	<text x="1046" y="610.8" fill="#000000" font-family="Verdana" font-size="12">avatar</text>
	<text x="1046" y="627.8" fill="#000000" font-family="Verdana" font-size="12">biographie</text>
	<text x="1046" y="644.8" fill="#000000" font-family="Verdana" font-size="12">role_code</text>
</g>

<!-- Entity ROLE -->
<g>
	<g>
		<rect x="1439" y="449" width="70" height="25" fill="#f4a582" stroke="none" stroke-width="0" opacity="1"/>
		<rect x="1439" y="474" width="70" height="43" fill="#fddbc7" stroke="none" stroke-width="0" opacity="1"/>
		<rect x="1439" y="449" width="70" height="68" fill="none" stroke="#d6604d" stroke-width="2" opacity="1"/>
		<line x1="1439" y1="474" x2="1509" y2="474" stroke="#d6604d" stroke-width="1"/>
	</g>
	<text x="1458" y="466.75" fill="#000000" font-family="Verdana" font-size="12">ROLE</text>
	<text x="1444" y="491.8" fill="#000000" font-family="Verdana" font-size="12">role_code</text>
	<line x1="1444" y1="494" x2="1504" y2="494" stroke="#000000" stroke-width="1"/>
	<text x="1444" y="508.8" fill="#000000" font-family="Verdana" font-size="12">nom</text>
</g>

<!-- Entity COMMENTAIRES -->
<g>
	<g>
		<rect x="1216" y="627" width="134" height="25" fill="#f4a582" stroke="none" stroke-width="0" opacity="1"/>
		<rect x="1216" y="652" width="134" height="127" fill="#fddbc7" stroke="none" stroke-width="0" opacity="1"/>
		<rect x="1216" y="627" width="134" height="152" fill="none" stroke="#d6604d" stroke-width="2" opacity="1"/>
		<line x1="1216" y1="652" x2="1350" y2="652" stroke="#d6604d" stroke-width="1"/>
	</g>
	<text x="1233" y="644.75" fill="#000000" font-family="Verdana" font-size="12">COMMENTAIRES</text>
	<text x="1221" y="669.8" fill="#000000" font-family="Verdana" font-size="12">comment_code</text>
	<line x1="1221" y1="672" x2="1314" y2="672" stroke="#000000" stroke-width="1"/>
	<text x="1221" y="686.8" fill="#000000" font-family="Verdana" font-size="12">titre</text>
	<text x="1221" y="703.8" fill="#000000" font-family="Verdana" font-size="12">contenu</text>
	<text x="1221" y="720.8" fill="#000000" font-family="Verdana" font-size="12">date_commentaire</text>
	<text x="1221" y="737.8" fill="#000000" font-family="Verdana" font-size="12">auteur</text>
	<text x="1221" y="754.8" fill="#000000" font-family="Verdana" font-size="12">statut_commentaire</text>
	<text x="1221" y="771.8" fill="#000000" font-family="Verdana" font-size="12">article_code</text>
</g>

<!-- Entity IMAGE -->
<g>
	<g>
		<rect x="365" y="821" width="90" height="25" fill="#f4a582" stroke="none" stroke-width="0" opacity="1"/>
		<rect x="365" y="846" width="90" height="59" fill="#fddbc7" stroke="none" stroke-width="0" opacity="1"/>
		<rect x="365" y="821" width="90" height="84" fill="none" stroke="#d6604d" stroke-width="2" opacity="1"/>
		<line x1="365" y1="846" x2="455" y2="846" stroke="#d6604d" stroke-width="1"/>
	</g>
	<text x="390" y="838.75" fill="#000000" font-family="Verdana" font-size="12">IMAGE</text>
	<text x="370" y="863.8" fill="#000000" font-family="Verdana" font-size="12">image_code</text>
	<line x1="370" y1="866" x2="444" y2="866" stroke="#000000" stroke-width="1"/>
	<text x="370" y="880.8" fill="#000000" font-family="Verdana" font-size="12">photo</text>
	<text x="370" y="897.8" fill="#000000" font-family="Verdana" font-size="12">produit_code</text>
</g>

<!-- Entity DEVIS -->
<g>
	<g>
		<rect x="705" y="761" width="108" height="25" fill="#f4a582" stroke="none" stroke-width="0" opacity="1"/>
		<rect x="705" y="786" width="108" height="179" fill="#fddbc7" stroke="none" stroke-width="0" opacity="1"/>
		<rect x="705" y="761" width="108" height="204" fill="none" stroke="#d6604d" stroke-width="2" opacity="1"/>
		<line x1="705" y1="786" x2="813" y2="786" stroke="#d6604d" stroke-width="1"/>
	</g>
	<text x="740" y="778.75" fill="#000000" font-family="Verdana" font-size="12">DEVIS</text>
	<text x="710" y="803.8" fill="#000000" font-family="Verdana" font-size="12">devis_code</text>
	<line x1="710" y1="806" x2="778" y2="806" stroke="#000000" stroke-width="1"/>
	<text x="710" y="820.8" fill="#000000" font-family="Verdana" font-size="12">numero_devis</text>
	<text x="710" y="837.8" fill="#000000" font-family="Verdana" font-size="12">nom_client</text>
	<text x="710" y="854.8" fill="#000000" font-family="Verdana" font-size="12">date_devis</text>
	<text x="710" y="871.8" fill="#000000" font-family="Verdana" font-size="12">validite_devis</text>
	<text x="710" y="888.8" fill="#000000" font-family="Verdana" font-size="12">detail_projet</text>
	<text x="710" y="905.8" fill="#000000" font-family="Verdana" font-size="12">statut_devis</text>
	<text x="710" y="922.8" fill="#000000" font-family="Verdana" font-size="12">utilisateur_code</text>
	<text x="710" y="939.8" fill="#000000" font-family="Verdana" font-size="12">facture_code</text>
	<text x="710" y="956.8" fill="#000000" font-family="Verdana" font-size="12">vendu</text>
</g>

<!-- Entity ARTICLES -->
<g>
	<g>
		<rect x="1034" y="753" width="122" height="25" fill="#f4a582" stroke="none" stroke-width="0" opacity="1"/>
		<rect x="1034" y="778" width="122" height="195" fill="#fddbc7" stroke="none" stroke-width="0" opacity="1"/>
		<rect x="1034" y="753" width="122" height="220" fill="none" stroke="#d6604d" stroke-width="2" opacity="1"/>
		<line x1="1034" y1="778" x2="1156" y2="778" stroke="#d6604d" stroke-width="1"/>
	</g>
	<text x="1065" y="770.75" fill="#000000" font-family="Verdana" font-size="12">ARTICLES</text>
	<text x="1039" y="795.8" fill="#000000" font-family="Verdana" font-size="12">article_code</text>
	<line x1="1039" y1="798" x2="1113" y2="798" stroke="#000000" stroke-width="1"/>
	<text x="1039" y="812.8" fill="#000000" font-family="Verdana" font-size="12">titre</text>
	<text x="1039" y="829.8" fill="#000000" font-family="Verdana" font-size="12">contenu</text>
	<text x="1039" y="846.8" fill="#000000" font-family="Verdana" font-size="12">date_publication</text>
	<text x="1039" y="863.8" fill="#000000" font-family="Verdana" font-size="12">auteur</text>
	<text x="1039" y="880.8" fill="#000000" font-family="Verdana" font-size="12">statut_publication</text>
	<text x="1039" y="897.8" fill="#000000" font-family="Verdana" font-size="12">vues</text>
	<text x="1039" y="914.8" fill="#000000" font-family="Verdana" font-size="12">image_couverture</text>
	<text x="1039" y="931.8" fill="#000000" font-family="Verdana" font-size="12">categorie_code</text>
	<text x="1039" y="948.8" fill="#000000" font-family="Verdana" font-size="12">utilisateur_code</text>
	<text x="1039" y="965.8" fill="#000000" font-family="Verdana" font-size="12">love</text>
</g>

<!-- Entity USERARTICLELOVE -->
<g>
	<g>
		<rect x="1410" y="812" width="128" height="25" fill="#f4a582" stroke="none" stroke-width="0" opacity="1"/>
		<rect x="1410" y="837" width="128" height="77" fill="#fddbc7" stroke="none" stroke-width="0" opacity="1"/>
		<rect x="1410" y="812" width="128" height="102" fill="none" stroke="#d6604d" stroke-width="2" opacity="1"/>
		<line x1="1410" y1="837" x2="1538" y2="837" stroke="#d6604d" stroke-width="1"/>
	</g>
	<text x="1415" y="829.75" fill="#000000" font-family="Verdana" font-size="12">USERARTICLELOVE</text>
	<text x="1415" y="854.8" fill="#000000" font-family="Verdana" font-size="12">code</text>
	<text x="1415" y="871.8" fill="#000000" font-family="Verdana" font-size="12">utilisateur_code</text>
	<text x="1415" y="888.8" fill="#000000" font-family="Verdana" font-size="12">article_code</text>
	<text x="1415" y="905.8" fill="#000000" font-family="Verdana" font-size="12">date_love</text>
</g>

<!-- Entity TAGS -->
<g>
	<g>
		<rect x="726" y="990" width="66" height="25" fill="#f4a582" stroke="none" stroke-width="0" opacity="1"/>
		<rect x="726" y="1015" width="66" height="43" fill="#fddbc7" stroke="none" stroke-width="0" opacity="1"/>
		<rect x="726" y="990" width="66" height="68" fill="none" stroke="#d6604d" stroke-width="2" opacity="1"/>
		<line x1="726" y1="1015" x2="792" y2="1015" stroke="#d6604d" stroke-width="1"/>
	</g>
	<text x="742" y="1007.75" fill="#000000" font-family="Verdana" font-size="12">TAGS</text>
	<text x="731" y="1032.8" fill="#000000" font-family="Verdana" font-size="12">tag_code</text>
	<line x1="731" y1="1035" x2="787" y2="1035" stroke="#000000" stroke-width="1"/>
	<text x="731" y="1049.8" fill="#000000" font-family="Verdana" font-size="12">nom</text>
</g>

<!-- Entity CATEGORIESARTICLES -->
<g>
	<g>
		<rect x="1207" y="982" width="152" height="25" fill="#f4a582" stroke="none" stroke-width="0" opacity="1"/>
		<rect x="1207" y="1007" width="152" height="59" fill="#fddbc7" stroke="none" stroke-width="0" opacity="1"/>
		<rect x="1207" y="982" width="152" height="84" fill="none" stroke="#d6604d" stroke-width="2" opacity="1"/>
		<line x1="1207" y1="1007" x2="1359" y2="1007" stroke="#d6604d" stroke-width="1"/>
	</g>
	<text x="1213" y="999.75" fill="#000000" font-family="Verdana" font-size="12">CATEGORIESARTICLES</text>
	<text x="1212" y="1024.8" fill="#000000" font-family="Verdana" font-size="12">categorie_code</text>
	<line x1="1212" y1="1027" x2="1305" y2="1027" stroke="#000000" stroke-width="1"/>
	<text x="1212" y="1041.8" fill="#000000" font-family="Verdana" font-size="12">nom</text>
	<text x="1212" y="1058.8" fill="#000000" font-family="Verdana" font-size="12">description</text>
</g>
</svg>